HIERARCHY
ROOT hip
{
  OFFSET 0.00112043 5.09927 -9.65472
  CHANNELS 6 Xposition Yposition Zposition Zrotation Xrotation Yrotation
  JOINT abdomen
  {
    OFFSET 0 -1.186 -1.5018
    CHANNELS 3 Zrotation Xrotation Yrotation
    JOINT abdomen2
    {
      OFFSET 0 9.964 0.2134
      CHANNELS 3 Zrotation Xrotation Yrotation
      JOINT chest
      {
        OFFSET 0 13.134 -3.2573
        CHANNELS 3 Zrotation Xrotation Yrotation
        JOINT neck
        {
          OFFSET 0 20.686 -1.6905
          CHANNELS 3 Zrotation Xrotation Yrotation
          JOINT head
          {
            OFFSET 0 7.238 -0.1237
            CHANNELS 3 Zrotation Xrotation Yrotation
            End Site
            {
              OFFSET 0 0 0
            }
          }
        }
        JOINT lCollar
        {
          OFFSET 1.7069 20.075 5.0056
          CHANNELS 3 Zrotation Xrotation Yrotation
          JOINT lShldr
          {
            OFFSET 13.6458 -0.047 -4.849
            CHANNELS 3 Zrotation Xrotation Yrotation
            JOINT lForeArm
            {
              OFFSET 28.3255 -0.9759 2.2888
              CHANNELS 3 Zrotation Xrotation Yrotation
              JOINT lHand
              {
                OFFSET 22.1583 -0.53 10.8316
                CHANNELS 3 Zrotation Xrotation Yrotation
                JOINT lThumb1
                {
                  OFFSET 0.786 0.112 2.5817
                  CHANNELS 3 Zrotation Xrotation Yrotation
                  JOINT lThumb2
                  {
                    OFFSET 0.3601 -0.878 4.2331
                    CHANNELS 3 Zrotation Xrotation Yrotation
                    JOINT lThumb2_End
                    {
                      OFFSET 1.8127 -1.216 2.2227
                      CHANNELS 3 Zrotation Xrotation Yrotation
                      End Site
                      {
                        OFFSET 0.0181 -0.0122 0.0222
                      }
                    }
                  }
                }
                JOINT lCarpal1
                {
                  OFFSET 0.9571 1.114 1.7695
                  CHANNELS 3 Zrotation Xrotation Yrotation
                  JOINT lIndex1
                  {
                    OFFSET 4.1246 0.487 4.1451
                    CHANNELS 3 Zrotation Xrotation Yrotation
                    JOINT lIndex2
                    {
                      OFFSET 3.4052 -1.454 2.7682
                      CHANNELS 3 Zrotation Xrotation Yrotation
                      JOINT lIndex2_End
                      {
                        OFFSET 1.4531 -1.795 1.2713
                        CHANNELS 3 Zrotation Xrotation Yrotation
                        End Site
                        {
                          OFFSET 0.0145 -0.0179 0.0127
                        }
                      }
                    }
                  }
                  JOINT lMid1
                  {
                    OFFSET 5.6954 0.21 2.1184
                    CHANNELS 3 Zrotation Xrotation Yrotation
                    JOINT lMid2
                    {
                      OFFSET 3.9766 -1.54 2.3863
                      CHANNELS 3 Zrotation Xrotation Yrotation
                      JOINT lMid2_End
                      {
                        OFFSET 1.4042 -1.926 1.125
                        CHANNELS 3 Zrotation Xrotation Yrotation
                        End Site
                        {
                          OFFSET 0.014 -0.0193 0.0113
                        }
                      }
                    }
                  }
                }
                JOINT lCarpal2
                {
                  OFFSET 2.0956 0.66 -0.3894
                  CHANNELS 3 Zrotation Xrotation Yrotation
                  JOINT lRing1
                  {
                    OFFSET 5.0395 -0.09 2.4971
                    CHANNELS 3 Zrotation Xrotation Yrotation
                    JOINT lRing2
                    {
                      OFFSET 3.7921 -1.552 1.4806
                      CHANNELS 3 Zrotation Xrotation Yrotation
                      JOINT lRing2_End
                      {
                        OFFSET 1.4655 -1.808 0.9609
                        CHANNELS 3 Zrotation Xrotation Yrotation
                        End Site
                        {
                          OFFSET 0.0147 -0.0181 0.0096
                        }
                      }
                    }
                  }
                  JOINT lPinky1
                  {
                    OFFSET 4.9141 -1.269 0.3591
                    CHANNELS 3 Zrotation Xrotation Yrotation
                    JOINT lPinky2
                    {
                      OFFSET 3.1477 -1.685 0.8462
                      CHANNELS 3 Zrotation Xrotation Yrotation
                      JOINT lPinky2_End
                      {
                        OFFSET 0.8055 -1.585 0.7955
                        CHANNELS 3 Zrotation Xrotation Yrotation
                        End Site
                        {
                          OFFSET 0.0081 -0.0158 0.008
                        }
                      }
                    }
                  }
                }
              }
            }
          }
        }
        JOINT rCollar
        {
          OFFSET -1.7069 20.075 5.0056
          CHANNELS 3 Zrotation Xrotation Yrotation
          JOINT rShldr
          {
            OFFSET -13.6458 -0.047 -4.849
            CHANNELS 3 Zrotation Xrotation Yrotation
            JOINT rForeArm
            {
              OFFSET -28.3255 -0.9759 2.2888
              CHANNELS 3 Zrotation Xrotation Yrotation
              JOINT rHand
              {
                OFFSET -22.1583 -0.53 10.8316
                CHANNELS 3 Zrotation Xrotation Yrotation
                JOINT rThumb1
                {
                  OFFSET -0.786 0.112 2.5817
                  CHANNELS 3 Zrotation Xrotation Yrotation
                  JOINT rThumb2
                  {
                    OFFSET -0.3601 -0.878 4.2331
                    CHANNELS 3 Zrotation Xrotation Yrotation
                    JOINT rThumb2_End
                    {
                      OFFSET -1.8127 -1.216 2.2227
                      CHANNELS 3 Zrotation Xrotation Yrotation
                      End Site
                      {
                        OFFSET -0.0181 -0.0122 0.0222
                      }
                    }
                  }
                }
                JOINT rCarpal1
                {
                  OFFSET -0.9571 1.114 1.7695
                  CHANNELS 3 Zrotation Xrotation Yrotation
                  JOINT rIndex1
                  {
                    OFFSET -4.1246 0.487 4.1451
                    CHANNELS 3 Zrotation Xrotation Yrotation
                    JOINT rIndex2
                    {
                      OFFSET -3.4052 -1.454 2.7682
                      CHANNELS 3 Zrotation Xrotation Yrotation
                      JOINT rIndex2_End
                      {
                        OFFSET -1.4531 -1.795 1.2713
                        CHANNELS 3 Zrotation Xrotation Yrotation
                        End Site
                        {
                          OFFSET -0.0145 -0.018 0.0127
                        }
                      }
                    }
                  }
                  JOINT rMid1
                  {
                    OFFSET -5.6954 0.21 2.1184
                    CHANNELS 3 Zrotation Xrotation Yrotation
                    JOINT rMid2
                    {
                      OFFSET -3.9766 -1.54 2.3863
                      CHANNELS 3 Zrotation Xrotation Yrotation
                      JOINT rMid2_End
                      {
                        OFFSET -1.4042 -1.926 1.125
                        CHANNELS 3 Zrotation Xrotation Yrotation
                        End Site
                        {
                          OFFSET -0.014 -0.0193 0.0113
                        }
                      }
                    }
                  }
                }
                JOINT rCarpal2
                {
                  OFFSET -2.0956 0.66 -0.3894
                  CHANNELS 3 Zrotation Xrotation Yrotation
                  JOINT rRing1
                  {
                    OFFSET -5.0395 -0.09 2.4971
                    CHANNELS 3 Zrotation Xrotation Yrotation
                    JOINT rRing2
                    {
                      OFFSET -3.7921 -1.552 1.4806
                      CHANNELS 3 Zrotation Xrotation Yrotation
                      JOINT rRing2_End
                      {
                        OFFSET -1.4655 -1.808 0.9609
                        CHANNELS 3 Zrotation Xrotation Yrotation
                        End Site
                        {
                          OFFSET -0.0147 -0.0181 0.0096
                        }
                      }
                    }
                  }
                  JOINT rPinky1
                  {
                    OFFSET -4.9141 -1.269 0.3592
                    CHANNELS 3 Zrotation Xrotation Yrotation
                    JOINT rPinky2
                    {
                      OFFSET -3.1477 -1.685 0.8462
                      CHANNELS 3 Zrotation Xrotation Yrotation
                      JOINT rPinky2_End
                      {
                        OFFSET -0.8055 -1.585 0.7955
                        CHANNELS 3 Zrotation Xrotation Yrotation
                        End Site
                        {
                          OFFSET -0.0081 -0.0158 0.008
                        }
                      }
                    }
                  }
                }
              }
            }
          }
        }
      }
    }
  }
  JOINT lThigh
  {
    OFFSET 8.367 -8.2066 0.5982
    CHANNELS 3 Zrotation Xrotation Yrotation
    JOINT lShin
    {
      OFFSET 2.1923 -43.463 -0.4932
      CHANNELS 3 Zrotation Xrotation Yrotation
      JOINT lFoot
      {
        OFFSET 0.7333 -45.8593 -2.6451
        CHANNELS 3 Zrotation Xrotation Yrotation
        End Site
        {
          OFFSET 2.6618 -4.2699 12.3931
        }
      }
    }
  }
  JOINT rThigh
  {
    OFFSET -8.367 -8.2066 0.5982
    CHANNELS 3 Zrotation Xrotation Yrotation
    JOINT rShin
    {
      OFFSET -2.1923 -43.463 -0.4931
      CHANNELS 3 Zrotation Xrotation Yrotation
      JOINT rFoot
      {
        OFFSET -0.7333 -45.8593 -2.6451
        CHANNELS 3 Zrotation Xrotation Yrotation
        End Site
        {
          OFFSET -2.6618 -4.2699 12.3931
        }
      }
    }
  }
}
MOTION
Frames:	4
Frame Time:	0.0333333
-0.83341 22.4675 38.0863 -1.44609e-014 46.6934 -180 -0.338054 14.6006 -0.0105819 -0.709762 29.201 0.0753097 -0.709762 29.201 0.0753095 -10.0432 -31.5047 -5.51037 -10.6626 -11.1541 -26.6703 11.0971 8.91137 -20.698 -53.169 5.67191 -25.9241 -6.66601 2.40504 17.0764 -9.44784 -3.36283 -15.0867 7.95139e-016 9.54166e-015 -3.97569e-015 -5.58281e-007 2.52654e-006 1.93484e-006 1.59028e-015 3.18055e-015 -1.59028e-015 3.18055e-015 9.54166e-015 -1.59028e-015 -3.97569e-015 -3.18055e-015 -1.59028e-015 -5.58281e-007 2.52654e-006 1.93484e-006 2.38542e-015 0 -7.95139e-016 -3.97569e-015 -3.18055e-015 -1.59028e-015 -5.58281e-007 2.52654e-006 1.93484e-006 2.38542e-015 0 -7.95139e-016 3.18055e-015 9.54166e-015 -1.59028e-015 -3.97569e-015 -3.18055e-015 -1.59028e-015 -5.58281e-007 2.52654e-006 1.93484e-006 2.38542e-015 0 -7.95139e-016 -3.97569e-015 -3.18055e-015 -1.59028e-015 -5.58281e-007 2.52654e-006 1.93484e-006 2.38542e-015 0 -7.95139e-016 -10.4917 9.65161 21.1609 52.5841 5.33351 26.1478 4.51624 2.63363 -18.2985 10.0144 -4.59208 15.4671 -7.95139e-016 1.59028e-014 3.18055e-015 -2.38542e-015 -3.18055e-015 -0 -4.90276e-007 -2.62178e-006 1.83832e-006 -1.59028e-015 1.59028e-014 2.38542e-015 -7.15625e-015 0 4.77083e-015 7.95139e-016 -3.18055e-015 -0 -4.90276e-007 -2.62178e-006 1.83832e-006 -7.15625e-015 0 4.77083e-015 7.95139e-016 -3.18055e-015 -0 -4.90276e-007 -2.62178e-006 1.83832e-006 -1.59028e-015 1.59028e-014 2.38542e-015 -7.15625e-015 0 4.77083e-015 7.95139e-016 -3.18055e-015 -0 -4.90276e-007 -2.62178e-006 1.83832e-006 -7.15625e-015 0 4.77083e-015 7.95139e-016 -3.18055e-015 -0 -4.90276e-007 -2.62178e-006 1.83832e-006 45.4464 -31.2655 83.41 6.30281 44.7288 -57.6777 14.9417 34.5628 31.2496 -45.4626 -31.2637 -83.4286 -6.32147 44.7269 57.6919 -14.9547 34.567 -31.2564 
-0.833458 22.4799 38.2584 -1.42106e-014 45.7145 -180 -0.338478 14.6531 -0.00962902 -0.711216 29.3061 0.077878 -0.711216 29.3061 0.0778779 -9.84906 -30.4467 -5.27915 -9.95061 -10.7831 -26.3832 11.339 8.37692 -20.7959 -53.169 5.67188 -25.9241 -6.66602 2.40504 17.0763 -9.12342 -4.02972 -15.7669 -2.33063e-006 5.23146e-006 3.45248e-006 -5.61638e-007 2.53024e-006 1.93212e-006 -3.21852e-006 4.56129e-006 1.22061e-006 -7.95139e-016 0 2.38542e-015 -2.33063e-006 5.23146e-006 3.45248e-006 -5.61638e-007 2.53024e-006 1.93212e-006 -3.21852e-006 4.56129e-006 1.22061e-006 -2.33063e-006 5.23146e-006 3.45248e-006 -5.61638e-007 2.53024e-006 1.93212e-006 -3.21852e-006 4.56129e-006 1.22061e-006 -7.95139e-016 0 2.38542e-015 -2.33063e-006 5.23146e-006 3.45248e-006 -5.61638e-007 2.53024e-006 1.93212e-006 -3.21852e-006 4.56129e-006 1.22061e-006 -2.33063e-006 5.23146e-006 3.45248e-006 -5.61638e-007 2.53024e-006 1.93212e-006 -3.21852e-006 4.56129e-006 1.22061e-006 -10.6913 9.16752 21.2947 52.5841 5.33353 26.1478 4.51623 2.63364 -18.2986 9.73943 -5.33696 16.1678 -4.94145e-007 -2.62446e-006 1.83649e-006 5.82055e-007 -4.46095e-006 -7.87967e-007 -1.32417e-031 -9.54166e-015 -7.95139e-016 -1.59028e-015 9.54166e-015 2.38542e-015 -4.94145e-007 -2.62446e-006 1.83649e-006 5.82055e-007 -4.46095e-006 -7.87967e-007 1.59028e-015 -1.27222e-014 -1.59028e-015 -4.94145e-007 -2.62446e-006 1.83649e-006 5.82055e-007 -4.46095e-006 -7.87967e-007 1.59028e-015 -1.27222e-014 -1.59028e-015 -1.59028e-015 9.54166e-015 2.38542e-015 -4.94145e-007 -2.62446e-006 1.83649e-006 5.82055e-007 -4.46095e-006 -7.87967e-007 1.59028e-015 -1.27222e-014 -1.59028e-015 -4.94145e-007 -2.62446e-006 1.83649e-006 5.82055e-007 -4.46095e-006 -7.87967e-007 1.59028e-015 -1.27222e-014 -1.59028e-015 45.4559 -32.0952 83.6907 6.00222 44.1502 -57.4928 14.5191 34.8784 31.6556 -45.4732 -32.0935 -83.7105 -6.02192 44.1485 57.508 -14.532 34.8828 -31.6627 
-0.833508 22.4909 38.4296 -1.39691e-014 44.736 -180 -0.338911 14.7057 -0.00867671 -0.712691 29.4111 0.0804509 -0.712691 29.4111 0.0804508 -9.66065 -29.3835 -5.05342 -9.24001 -10.4079 -26.1007 11.5795 7.84214 -20.8914 -53.169 5.67191 -25.9241 -6.66603 2.40504 17.0764 -8.80681 -4.70019 -16.4437 -1.59028e-015 0 -7.95139e-016 -7.95139e-016 0 -3.18055e-015 -5.65144e-007 2.53379e-006 1.92951e-006 -7.95139e-016 0 -1.59028e-015 -3.18055e-015 0 -2.38542e-015 -2.38542e-015 -3.18055e-015 -7.95139e-016 -5.65144e-007 2.53379e-006 1.92951e-006 -3.18055e-015 0 -2.38542e-015 -2.38542e-015 -3.18055e-015 -7.95139e-016 -5.65144e-007 2.53379e-006 1.92951e-006 -7.95139e-016 0 -1.59028e-015 -3.18055e-015 0 -2.38542e-015 -2.38542e-015 -3.18055e-015 -7.95139e-016 -5.65144e-007 2.53379e-006 1.92951e-006 -3.18055e-015 0 -2.38542e-015 -2.38542e-015 -3.18055e-015 -7.95139e-016 -5.65144e-007 2.53379e-006 1.92951e-006 -10.8894 8.68306 21.4267 52.5841 5.33353 26.1478 4.51625 2.63363 -18.2985 9.47334 -6.08484 16.8655 -3.707e-006 1.40236e-006 -1.51757e-006 2.08524e-006 5.28034e-006 -1.49522e-007 1.547e-006 4.06105e-007 6.24471e-007 -1.59028e-015 9.54166e-015 -1.59028e-015 -3.707e-006 1.40236e-006 -1.51757e-006 2.08524e-006 5.28034e-006 -1.49522e-007 1.547e-006 4.06105e-007 6.24471e-007 -3.707e-006 1.40236e-006 -1.51757e-006 2.08524e-006 5.28034e-006 -1.49522e-007 1.547e-006 4.06105e-007 6.24471e-007 -1.59028e-015 9.54166e-015 -1.59028e-015 -3.707e-006 1.40236e-006 -1.51757e-006 2.08524e-006 5.28034e-006 -1.49522e-007 1.547e-006 4.06105e-007 6.24471e-007 -3.707e-006 1.40236e-006 -1.51757e-006 2.08524e-006 5.28034e-006 -1.49522e-007 1.547e-006 4.06105e-007 6.24471e-007 45.4715 -32.9243 83.9742 5.70795 43.5707 -57.3145 14.0893 35.1915 32.0665 -45.49 -32.9227 -83.9952 -5.72862 43.5692 57.3307 -14.102 35.196 -32.0739 
-0.833559 22.5004 38.6 -1.37356e-014 43.7579 -180 -0.339338 14.7582 -0.00771656 -0.714162 29.5161 0.0830435 -0.714163 29.5161 0.0830436 -9.47729 -28.3166 -4.83343 -8.53083 -10.0286 -25.8227 11.8189 7.30706 -20.9845 -53.169 5.6719 -25.9241 -6.66599 2.40504 17.0764 -8.49801 -5.37396 -17.1171 -7.95139e-016 0 7.95139e-016 -5.68793e-007 2.5372e-006 1.927e-006 5.0744e-006 1.13759e-006 2.18047e-006 -7.95139e-016 6.36111e-015 7.95139e-016 -5.56597e-015 -9.54166e-015 2.38542e-015 -5.68793e-007 2.5372e-006 1.927e-006 5.0744e-006 1.13759e-006 2.18047e-006 -5.56597e-015 -9.54166e-015 2.38542e-015 -5.68793e-007 2.5372e-006 1.927e-006 5.0744e-006 1.13759e-006 2.18047e-006 -7.95139e-016 6.36111e-015 7.95139e-016 -5.56597e-015 -9.54166e-015 2.38542e-015 -5.68793e-007 2.5372e-006 1.927e-006 5.0744e-006 1.13759e-006 2.18047e-006 -5.56597e-015 -9.54166e-015 2.38542e-015 -5.68793e-007 2.5372e-006 1.927e-006 5.0744e-006 1.13759e-006 2.18047e-006 -11.0861 8.19822 21.5567 52.5841 5.33351 26.1478 4.51625 2.63364 -18.2985 9.21621 -6.83544 17.5603 -2.38542e-015 -3.18055e-015 -0 -1.56806e-006 -7.96117e-007 4.46268e-006 -1.00445e-006 -5.25879e-006 3.66656e-006 7.95139e-016 -3.18055e-015 1.59028e-015 -1.11319e-014 3.18055e-015 7.95139e-016 -1.56806e-006 -7.96117e-007 4.46268e-006 -1.00445e-006 -5.25879e-006 3.66656e-006 -1.11319e-014 3.18055e-015 7.95139e-016 -1.56806e-006 -7.96117e-007 4.46268e-006 -1.00445e-006 -5.25879e-006 3.66656e-006 7.95139e-016 -3.18055e-015 1.59028e-015 -1.11319e-014 3.18055e-015 7.95139e-016 -1.56806e-006 -7.96117e-007 4.46268e-006 -1.00445e-006 -5.25879e-006 3.66656e-006 -1.11319e-014 3.18055e-015 7.95139e-016 -1.56806e-006 -7.96117e-007 4.46268e-006 -1.00445e-006 -5.25879e-006 3.66656e-006 45.4935 -33.7528 84.261 5.4198 42.9909 -57.1426 13.6523 35.5017 32.4822 -45.5132 -33.7512 -84.2833 -5.44144 42.9895 57.1598 -13.6648 35.5065 -32.49 
